<?xml version="1.0" encoding="UTF-8" standalone="no"?>
<!-- Generator: Adobe Illustrator 16.0.0, SVG Export Plug-In . SVG Version: 6.00 Build 0)  -->

<svg
   xmlns:dc="http://purl.org/dc/elements/1.1/"
   xmlns:cc="http://creativecommons.org/ns#"
   xmlns:rdf="http://www.w3.org/1999/02/22-rdf-syntax-ns#"
   xmlns:svg="http://www.w3.org/2000/svg"
   xmlns="http://www.w3.org/2000/svg"
   xmlns:sodipodi="http://sodipodi.sourceforge.net/DTD/sodipodi-0.dtd"
   xmlns:inkscape="http://www.inkscape.org/namespaces/inkscape"
   version="1.1"
   id="Capa_1"
   x="0px"
   y="0px"
   width="512px"
   height="512px"
   viewBox="0 0 93.934 93.934"
   style="enable-background:new 0 0 93.934 93.934;"
   xml:space="preserve"
   sodipodi:docname="close.svg"
   inkscape:version="0.92.1 r15371"><metadata
     id="metadata41"><rdf:RDF><cc:Work
         rdf:about=""><dc:format>image/svg+xml</dc:format><dc:type
           rdf:resource="http://purl.org/dc/dcmitype/StillImage" /><dc:title></dc:title></cc:Work></rdf:RDF></metadata><defs
     id="defs39" /><sodipodi:namedview
     pagecolor="#ffffff"
     bordercolor="#666666"
     borderopacity="1"
     objecttolerance="10"
     gridtolerance="10"
     guidetolerance="10"
     inkscape:pageopacity="0"
     inkscape:pageshadow="2"
     inkscape:window-width="1420"
     inkscape:window-height="874"
     id="namedview37"
     showgrid="false"
     inkscape:zoom="0.4609375"
     inkscape:cx="608.54237"
     inkscape:cy="256"
     inkscape:window-x="0"
     inkscape:window-y="0"
     inkscape:window-maximized="0"
     inkscape:current-layer="Capa_1" /><g
     id="g6" /><g
     id="g8" /><g
     id="g10" /><g
     id="g12" /><g
     id="g14" /><g
     id="g16" /><g
     id="g18" /><g
     id="g20" /><g
     id="g22" /><g
     id="g24" /><g
     id="g26" /><g
     id="g28" /><g
     id="g30" /><g
     id="g32" /><g
     id="g34" /><g
     id="g4541"
     transform="translate(115.02935,48.559102)"><g
       transform="translate(-114.80466,-48.26033)"
       id="g4"><path
         style="fill:#20161f"
         inkscape:connector-curvature="0"
         id="path2"
         d="m 80.178,13.757 c -18.341,-18.342 -48.08,-18.342 -66.421,0 -18.342,18.341 -18.342,48.08 0,66.421 18.341,18.342 48.08,18.342 66.421,0 18.342,-18.342 18.342,-48.08 0,-66.421 z m -8.602,47.98 -9.838,9.838 -14.771,-14.77 -14.771,14.77 -9.838,-9.838 14.77,-14.771 -14.77,-14.771 9.838,-9.838 14.771,14.771 14.771,-14.771 9.838,9.838 -14.77,14.772 z" /></g><path
       inkscape:connector-curvature="0"
       id="path4520"
       d="m -87.366582,18.213294 c -2.408053,-2.489294 -4.459467,-4.621029 -4.558697,-4.737192 -0.09923,-0.116163 3.12296,-3.5182079 7.160421,-7.5600998 l 7.340843,-7.3488952 -7.356402,-7.3644731 -7.356403,-7.3644729 4.776306,-4.776306 4.776305,-4.776303 7.356505,7.364574 7.356504,7.364576 7.37243,-7.36477 7.37243,-7.364771 4.76615,4.778599 4.766147,4.778598 -7.354359,7.3624279 -7.35436,7.3624275 7.460192,7.467951 7.460194,7.4679506 -4.778599,4.766151 -4.778598,4.766147 -7.266799,-7.258838 c -3.996739,-3.992358 -7.446008,-7.2588322 -7.665041,-7.2588322 -0.219033,0 -3.618516,3.2240052 -7.554405,7.1644562 -3.93589,3.940452 -7.247586,7.140297 -7.359324,7.110772 -0.111737,-0.02953 -2.173385,-2.090382 -4.58144,-4.579677 z"
       style="opacity:0;fill:#00ffff;stroke-width:0.39802542" /><path
       inkscape:connector-curvature="0"
       id="path4522"
       d="m -87.366582,18.213294 c -2.408053,-2.489294 -4.459467,-4.621029 -4.558697,-4.737192 -0.09923,-0.116163 3.12296,-3.5182079 7.160421,-7.5600998 l 7.340843,-7.3488952 -7.356402,-7.3644731 -7.356403,-7.3644729 4.776306,-4.776306 4.776305,-4.776303 7.356505,7.364574 7.356504,7.364576 7.37243,-7.36477 7.37243,-7.364771 4.76615,4.778599 4.766147,4.778598 -7.354359,7.3624279 -7.35436,7.3624275 7.460192,7.467951 7.460194,7.4679506 -4.778599,4.766151 -4.778598,4.766147 -7.266799,-7.258838 c -3.996739,-3.992358 -7.446008,-7.2588322 -7.665041,-7.2588322 -0.219033,0 -3.618516,3.2240052 -7.554405,7.1644562 -3.93589,3.940452 -7.247586,7.140297 -7.359324,7.110772 -0.111737,-0.02953 -2.173385,-2.090382 -4.58144,-4.579677 z"
       style="opacity:0;fill:#00ffff;stroke-width:0.39802542" /><path
       inkscape:connector-curvature="0"
       id="path4524"
       d="m -87.366582,18.213294 c -2.408053,-2.489294 -4.459467,-4.621029 -4.558697,-4.737192 -0.09923,-0.116163 3.12296,-3.5182079 7.160421,-7.5600998 l 7.340843,-7.3488952 -7.356402,-7.3644731 -7.356403,-7.3644729 4.776306,-4.776306 4.776305,-4.776303 7.356505,7.364574 7.356504,7.364576 7.37243,-7.36477 7.37243,-7.364771 4.76615,4.778599 4.766147,4.778598 -7.354359,7.3624279 -7.35436,7.3624275 7.460192,7.467951 7.460194,7.4679506 -4.778599,4.766151 -4.778598,4.766147 -7.266799,-7.258838 c -3.996739,-3.992358 -7.446008,-7.2588322 -7.665041,-7.2588322 -0.219033,0 -3.618516,3.2240052 -7.554405,7.1644562 -3.93589,3.940452 -7.247586,7.140297 -7.359324,7.110772 -0.111737,-0.02953 -2.173385,-2.090382 -4.58144,-4.579677 z"
       style="opacity:1;fill:#ffffff;fill-opacity:1;stroke-width:0.39802542" /></g></svg>